<svg width="83" height="92" viewBox="0 0 83 92" fill="none" xmlns="http://www.w3.org/2000/svg">
<path d="M54 18.3753C58.3333 17.2064 67 18.0948 67 31" stroke="#516287" stroke-width="6" stroke-linecap="round"/>
<mask id="path-2-inside-1_310_458" fill="white">
<path fill-rule="evenodd" clip-rule="evenodd" d="M5.72018 50.4232C5.72018 49.56 5.90691 48.7435 6.07875 47.9921C6.12575 47.7867 6.17162 47.5861 6.21227 47.3907C3.01935 42.3906 0.916847 36.7716 0.0423431 30.9014C-0.0322189 30.4037 -0.00814056 29.896 0.113197 29.4076C0.234535 28.9191 0.45076 28.4593 0.749527 28.0545C1.04829 27.6497 1.42374 27.3078 1.85445 27.0484C2.28516 26.7889 2.7627 26.6169 3.25978 26.5422C3.75687 26.4675 4.26377 26.4917 4.75155 26.6132C5.23933 26.7347 5.69843 26.9512 6.10264 27.2504C6.50686 27.5496 6.84827 27.9256 7.10738 28.3569C7.36649 28.7883 7.53824 29.2665 7.6128 29.7643C8.3894 35.0302 10.3857 40.041 13.442 44.3961C13.7608 44.8398 13.98 45.3474 14.0845 45.8839C14.1891 46.4204 14.1765 46.9732 14.0477 47.5044C12.4273 54.0132 12.4273 60.8207 14.0477 67.3295C15.4891 73.2655 18.3173 78.7739 22.2995 83.4017C22.5452 83.6614 22.8415 83.8678 23.1701 84.0082C23.4474 84.1089 23.7457 84.1374 24.037 84.091C24.3284 84.0446 24.6031 83.9248 24.8356 83.7429C25.2076 83.4636 25.5032 83.0949 25.6951 82.6709C25.887 82.2468 25.9689 81.7811 25.9333 81.3169C25.1603 74.313 27.1729 67.286 31.5354 61.7572C32.724 60.3141 34.1991 59.1341 35.8673 58.2923C37.5355 57.4505 39.3602 56.9653 41.2256 56.8673C43.0932 56.9845 44.916 57.4899 46.5779 58.3513C48.2397 59.2128 49.7042 60.4115 50.8779 61.8709C55.2001 67.4167 57.1714 74.442 56.3665 81.4306C56.3309 81.8948 56.4128 82.3605 56.6047 82.7846C56.7966 83.2086 57.0922 83.5774 57.4642 83.8566C57.6967 84.0385 57.9714 84.1583 58.2628 84.2047C58.5541 84.2511 58.8524 84.2226 59.1297 84.122C59.5236 83.9682 59.8743 83.7211 60.1517 83.4017C64.1612 78.7816 67.0156 73.2725 68.4792 67.3295C70.0996 60.8207 70.0996 54.0132 68.4792 47.5044C68.3561 46.979 68.3464 46.4332 68.4509 45.9037C68.5553 45.3742 68.7715 44.8731 69.0849 44.434C70.458 42.4616 71.625 40.3531 72.5673 38.1416C74.1947 34.2548 75.1176 30.1088 75.2926 25.8978C75.5313 22.7967 74.9586 19.6869 73.6311 16.8751C72.3035 14.0633 70.2669 11.6466 67.7222 9.86342C65.8434 8.56722 63.6534 7.79611 61.3779 7.62954C59.1025 7.46297 56.8238 7.90696 54.7767 8.91576C54.4243 9.05151 54.0913 9.22613 53.7638 9.39787C53.634 9.46593 53.5051 9.53353 53.3762 9.59808C52.0705 10.3221 50.8068 11.1194 49.591 11.9862C47.1757 13.76 44.2586 14.7164 41.2635 14.7164C38.2683 14.7164 35.3512 13.76 32.936 11.9862C31.7201 11.1194 30.4564 10.3221 29.1507 9.59808C29.0218 9.53353 28.8929 9.46593 28.7631 9.39787C28.4356 9.22613 28.1026 9.05151 27.7502 8.91576C26.0223 8.07435 24.1262 7.63713 22.2048 7.63713C20.2835 7.63713 18.3873 8.07435 16.6595 8.91576C14.4608 9.98889 12.5284 11.5391 11.0028 13.4537C9.47723 15.3683 8.39675 17.5993 7.83991 19.9844C7.72084 20.4752 7.50502 20.9373 7.20512 21.3434C6.90523 21.7495 6.52731 22.0915 6.09357 22.3493C5.65983 22.6071 5.17902 22.7755 4.67937 22.8446C4.17974 22.9136 3.67136 22.882 3.18409 22.7516C2.70148 22.6279 2.24799 22.41 1.84963 22.1105C1.45128 21.8109 1.11588 21.4355 0.862686 21.0059C0.609489 20.5763 0.443474 20.1008 0.374153 19.6068C0.304832 19.1128 0.333572 18.6099 0.458717 18.127C1.30545 14.6604 2.90435 11.4231 5.14176 8.64522C7.37918 5.86739 10.2002 3.61724 13.4042 2.05472C16.147 0.744926 19.1472 0.0652066 22.1859 0.0652066C25.2246 0.0652066 28.2249 0.744926 30.9676 2.05472L32.7088 2.92656C34.3439 3.7881 35.9241 4.75024 37.4404 5.80744C38.5557 6.67425 39.9274 7.14472 41.3392 7.14472C42.751 7.14472 44.1226 6.67425 45.2379 5.80744C46.7175 4.75422 48.2597 3.79215 49.8559 2.92656L51.5971 2.05472C54.8211 0.484169 58.402 -0.206204 61.9778 0.0533791C65.5536 0.312962 68.9976 1.5133 71.9616 3.53306C75.611 6.03822 78.5436 9.45459 80.469 13.4438C82.3943 17.4331 83.2457 21.8568 82.9388 26.2769V26.5422C82.6906 31.5241 81.5762 36.4243 79.6457 41.0224C78.7301 43.1985 77.6283 45.2912 76.3525 47.277C76.3525 47.8663 76.4843 48.4849 76.6203 49.1238C76.703 49.5122 76.7873 49.9082 76.8446 50.3095L77.0339 54.4792L77.2231 58.6489C77.0695 69.6913 73.0507 80.3294 65.8674 88.7086C64.8454 89.9123 63.5463 90.849 62.0822 91.4379C60.6418 91.9593 59.0963 92.1213 57.5793 91.91C56.0624 91.6986 54.6197 91.1202 53.3762 90.2249C51.9181 89.2268 50.7342 87.8773 49.9338 86.3007C49.1334 84.7241 48.7421 82.971 48.7961 81.2032C49.3464 76.1977 48.0691 71.1619 45.2001 67.0262C44.3673 66.1164 42.8154 64.4486 41.112 64.4486C39.4087 64.4486 37.8568 66.1164 37.024 67.0262C34.0883 71.1363 32.7431 76.1743 33.2388 81.2032C33.2993 82.9091 32.9451 84.6043 32.2066 86.1428C31.4681 87.6813 30.3675 89.0171 28.9993 90.0353C27.4101 91.1794 25.5058 91.8019 23.5486 91.8169C22.451 91.8196 21.3616 91.6271 20.3312 91.2484C18.8648 90.6635 17.5648 89.7262 16.5459 88.5191C9.36261 80.1399 5.34383 69.5018 5.19025 58.4594L5.72018 50.4232Z"/>
</mask>
<path fill-rule="evenodd" clip-rule="evenodd" d="M5.72018 50.4232C5.72018 49.56 5.90691 48.7435 6.07875 47.9921C6.12575 47.7867 6.17162 47.5861 6.21227 47.3907C3.01935 42.3906 0.916847 36.7716 0.0423431 30.9014C-0.0322189 30.4037 -0.00814056 29.896 0.113197 29.4076C0.234535 28.9191 0.45076 28.4593 0.749527 28.0545C1.04829 27.6497 1.42374 27.3078 1.85445 27.0484C2.28516 26.7889 2.7627 26.6169 3.25978 26.5422C3.75687 26.4675 4.26377 26.4917 4.75155 26.6132C5.23933 26.7347 5.69843 26.9512 6.10264 27.2504C6.50686 27.5496 6.84827 27.9256 7.10738 28.3569C7.36649 28.7883 7.53824 29.2665 7.6128 29.7643C8.3894 35.0302 10.3857 40.041 13.442 44.3961C13.7608 44.8398 13.98 45.3474 14.0845 45.8839C14.1891 46.4204 14.1765 46.9732 14.0477 47.5044C12.4273 54.0132 12.4273 60.8207 14.0477 67.3295C15.4891 73.2655 18.3173 78.7739 22.2995 83.4017C22.5452 83.6614 22.8415 83.8678 23.1701 84.0082C23.4474 84.1089 23.7457 84.1374 24.037 84.091C24.3284 84.0446 24.6031 83.9248 24.8356 83.7429C25.2076 83.4636 25.5032 83.0949 25.6951 82.6709C25.887 82.2468 25.9689 81.7811 25.9333 81.3169C25.1603 74.313 27.1729 67.286 31.5354 61.7572C32.724 60.3141 34.1991 59.1341 35.8673 58.2923C37.5355 57.4505 39.3602 56.9653 41.2256 56.8673C43.0932 56.9845 44.916 57.4899 46.5779 58.3513C48.2397 59.2128 49.7042 60.4115 50.8779 61.8709C55.2001 67.4167 57.1714 74.442 56.3665 81.4306C56.3309 81.8948 56.4128 82.3605 56.6047 82.7846C56.7966 83.2086 57.0922 83.5774 57.4642 83.8566C57.6967 84.0385 57.9714 84.1583 58.2628 84.2047C58.5541 84.2511 58.8524 84.2226 59.1297 84.122C59.5236 83.9682 59.8743 83.7211 60.1517 83.4017C64.1612 78.7816 67.0156 73.2725 68.4792 67.3295C70.0996 60.8207 70.0996 54.0132 68.4792 47.5044C68.3561 46.979 68.3464 46.4332 68.4509 45.9037C68.5553 45.3742 68.7715 44.8731 69.0849 44.434C70.458 42.4616 71.625 40.3531 72.5673 38.1416C74.1947 34.2548 75.1176 30.1088 75.2926 25.8978C75.5313 22.7967 74.9586 19.6869 73.6311 16.8751C72.3035 14.0633 70.2669 11.6466 67.7222 9.86342C65.8434 8.56722 63.6534 7.79611 61.3779 7.62954C59.1025 7.46297 56.8238 7.90696 54.7767 8.91576C54.4243 9.05151 54.0913 9.22613 53.7638 9.39787C53.634 9.46593 53.5051 9.53353 53.3762 9.59808C52.0705 10.3221 50.8068 11.1194 49.591 11.9862C47.1757 13.76 44.2586 14.7164 41.2635 14.7164C38.2683 14.7164 35.3512 13.76 32.936 11.9862C31.7201 11.1194 30.4564 10.3221 29.1507 9.59808C29.0218 9.53353 28.8929 9.46593 28.7631 9.39787C28.4356 9.22613 28.1026 9.05151 27.7502 8.91576C26.0223 8.07435 24.1262 7.63713 22.2048 7.63713C20.2835 7.63713 18.3873 8.07435 16.6595 8.91576C14.4608 9.98889 12.5284 11.5391 11.0028 13.4537C9.47723 15.3683 8.39675 17.5993 7.83991 19.9844C7.72084 20.4752 7.50502 20.9373 7.20512 21.3434C6.90523 21.7495 6.52731 22.0915 6.09357 22.3493C5.65983 22.6071 5.17902 22.7755 4.67937 22.8446C4.17974 22.9136 3.67136 22.882 3.18409 22.7516C2.70148 22.6279 2.24799 22.41 1.84963 22.1105C1.45128 21.8109 1.11588 21.4355 0.862686 21.0059C0.609489 20.5763 0.443474 20.1008 0.374153 19.6068C0.304832 19.1128 0.333572 18.6099 0.458717 18.127C1.30545 14.6604 2.90435 11.4231 5.14176 8.64522C7.37918 5.86739 10.2002 3.61724 13.4042 2.05472C16.147 0.744926 19.1472 0.0652066 22.1859 0.0652066C25.2246 0.0652066 28.2249 0.744926 30.9676 2.05472L32.7088 2.92656C34.3439 3.7881 35.9241 4.75024 37.4404 5.80744C38.5557 6.67425 39.9274 7.14472 41.3392 7.14472C42.751 7.14472 44.1226 6.67425 45.2379 5.80744C46.7175 4.75422 48.2597 3.79215 49.8559 2.92656L51.5971 2.05472C54.8211 0.484169 58.402 -0.206204 61.9778 0.0533791C65.5536 0.312962 68.9976 1.5133 71.9616 3.53306C75.611 6.03822 78.5436 9.45459 80.469 13.4438C82.3943 17.4331 83.2457 21.8568 82.9388 26.2769V26.5422C82.6906 31.5241 81.5762 36.4243 79.6457 41.0224C78.7301 43.1985 77.6283 45.2912 76.3525 47.277C76.3525 47.8663 76.4843 48.4849 76.6203 49.1238C76.703 49.5122 76.7873 49.9082 76.8446 50.3095L77.0339 54.4792L77.2231 58.6489C77.0695 69.6913 73.0507 80.3294 65.8674 88.7086C64.8454 89.9123 63.5463 90.849 62.0822 91.4379C60.6418 91.9593 59.0963 92.1213 57.5793 91.91C56.0624 91.6986 54.6197 91.1202 53.3762 90.2249C51.9181 89.2268 50.7342 87.8773 49.9338 86.3007C49.1334 84.7241 48.7421 82.971 48.7961 81.2032C49.3464 76.1977 48.0691 71.1619 45.2001 67.0262C44.3673 66.1164 42.8154 64.4486 41.112 64.4486C39.4087 64.4486 37.8568 66.1164 37.024 67.0262C34.0883 71.1363 32.7431 76.1743 33.2388 81.2032C33.2993 82.9091 32.9451 84.6043 32.2066 86.1428C31.4681 87.6813 30.3675 89.0171 28.9993 90.0353C27.4101 91.1794 25.5058 91.8019 23.5486 91.8169C22.451 91.8196 21.3616 91.6271 20.3312 91.2484C18.8648 90.6635 17.5648 89.7262 16.5459 88.5191C9.36261 80.1399 5.34383 69.5018 5.19025 58.4594L5.72018 50.4232Z" fill="#516287" stroke="#516287" stroke-width="2" mask="url(#path-2-inside-1_310_458)"/>
</svg>
